<?xml version="1.0" standalone="no"?>
<!DOCTYPE svg PUBLIC "-//W3C//DTD SVG 20010904//EN"
 "http://www.w3.org/TR/2001/REC-SVG-20010904/DTD/svg10.dtd">
<svg version="1.0" xmlns="http://www.w3.org/2000/svg"
 width="4096.000000pt" height="2861.000000pt" viewBox="0 0 4096.000000 2861.000000"
 preserveAspectRatio="xMidYMid meet">

<g transform="translate(0.000000,2861.000000) scale(0.100000,-0.100000)"
fill="#d85316" stroke="none">
<path d="M18760 28599 c-2367 -22 -4803 -77 -6815 -154 -3833 -147 -6465 -390
-7540 -694 -1068 -303 -1987 -925 -2680 -1816 -408 -524 -731 -1194 -903
-1870 -456 -1790 -747 -5034 -813 -9046 -9 -549 -9 -884 0 -1430 66 -4028 352
-7222 807 -9024 289 -1143 923 -2112 1860 -2841 480 -373 1120 -694 1719 -862
1708 -480 6994 -785 14752 -853 1948 -17 4408 6 6938 66 5226 124 8771 378
10285 736 225 54 468 131 705 224 157 61 548 254 697 343 864 517 1535 1238
1980 2126 197 394 322 753 442 1272 426 1849 693 4960 757 8818 26 1576 -47
3916 -181 5801 -165 2314 -444 4186 -760 5099 -387 1117 -1158 2077 -2161
2691 -513 314 -1028 518 -1638 649 -1977 426 -7029 699 -14191 766 -1147 11
-2022 11 -3260 -1z m2936 -11239 c2925 -1694 5320 -3084 5321 -3088 2 -5
-10492 -6056 -10623 -6125 l-34 -17 0 6155 c0 3385 4 6155 8 6155 5 0 2402
-1386 5328 -3080z"/>
</g>
</svg>
